<svg width="30" height="30" viewBox="0 0 30 30" fill="none" xmlns="http://www.w3.org/2000/svg">
<path d="M22.5 19.6875V8.4375H20.625V21.5625H28.125V19.6875H22.5ZM16.875 8.4375H13.125C12.6277 8.4375 12.1508 8.63504 11.7992 8.98668C11.4475 9.33831 11.25 9.81522 11.25 10.3125V19.6875C11.25 20.1848 11.4475 20.6617 11.7992 21.0133C12.1508 21.365 12.6277 21.5625 13.125 21.5625H14.0625V23.4375C14.0625 23.9348 14.26 24.4117 14.6117 24.7633C14.9633 25.115 15.4402 25.3125 15.9375 25.3125H17.8125V23.4375H15.9375V21.5625H16.875C17.3723 21.5625 17.8492 21.365 18.2008 21.0133C18.5525 20.6617 18.75 20.1848 18.75 19.6875V10.3125C18.75 9.81522 18.5525 9.33831 18.2008 8.98668C17.8492 8.63504 17.3723 8.4375 16.875 8.4375ZM13.125 19.6875V10.3125H16.875V19.6875H13.125ZM7.5 21.5625H1.875V19.6875H7.5V15.9375H3.75C3.25272 15.9375 2.77581 15.74 2.42417 15.3883C2.07254 15.0367 1.875 14.5598 1.875 14.0625V10.3125C1.875 9.81522 2.07254 9.33831 2.42417 8.98668C2.77581 8.63504 3.25272 8.4375 3.75 8.4375H9.375V10.3125H3.75V14.0625H7.5C7.99728 14.0625 8.47419 14.26 8.82582 14.6117C9.17746 14.9633 9.375 15.4402 9.375 15.9375V19.6875C9.375 20.1848 9.17746 20.6617 8.82582 21.0133C8.47419 21.365 7.99728 21.5625 7.5 21.5625Z" fill="#2A7AE4"/>
</svg>
