<svg width="30" height="30" viewBox="0 0 30 30" fill="none" xmlns="http://www.w3.org/2000/svg">
<path d="M23.85 8.25C22.95 6.75 21.3 6 19.5 6H10.5C8.7 6 7.05 6.75 6.15 8.25C2.7 13.5 1.95 21.45 4.35 23.1C6.75 24.75 12.15 17.55 15 17.55C17.85 17.55 23.1 24.75 25.65 23.1C28.05 21.45 27.3 13.5 23.85 8.25V8.25ZM12 13.5H10.5V15H9V13.5H7.5V12H9V10.5H10.5V12H12V13.5ZM20.1 14.25C20.1 15 19.5 15.6 18.75 15.6C18 15.6 17.4 15 17.4 14.25C17.4 13.5 18 12.9 18.75 12.9C19.5 12.9 20.1 13.5 20.1 14.25ZM22.95 11.25C22.95 12 22.35 12.6 21.6 12.6C20.85 12.6 20.25 12 20.25 11.25C20.25 10.5 20.85 9.9 21.6 9.9C22.35 9.9 22.95 10.5 22.95 11.25Z" fill="#2A7AE4"/>
</svg>
