<svg width="30" height="30" viewBox="0 0 30 30" fill="none" xmlns="http://www.w3.org/2000/svg">
<path d="M23.9805 4.52394C23.9453 4.31243 23.8651 4.11093 23.7454 3.93304C23.6256 3.75514 23.4692 3.60498 23.2865 3.49268C23.1038 3.38038 22.8992 3.30854 22.6864 3.28202C22.4736 3.2555 22.2576 3.27491 22.053 3.33894L11.553 6.61944C11.2477 6.71476 10.9808 6.90516 10.7914 7.16287C10.602 7.42058 10.4999 7.7321 10.5 8.05194V20.2499C9.8242 19.7431 8.99705 19.4793 8.15257 19.5012C7.3081 19.5232 6.49577 19.8296 5.8472 20.3709C5.19864 20.9122 4.75183 21.6566 4.57917 22.4835C4.40651 23.3104 4.51811 24.1714 4.8959 24.927C5.27369 25.6826 5.89553 26.2885 6.66067 26.6465C7.4258 27.0045 8.28942 27.0937 9.11158 26.8996C9.93374 26.7055 10.6663 26.2395 11.1905 25.5771C11.7148 24.9147 12 24.0947 12 23.2499V12.5519L22.5 9.26994V13.5344C23.0145 13.5794 23.517 13.6739 24 13.8104V4.76994C24 4.68594 23.9925 4.60494 23.9805 4.52394ZM28.5 21.7499C28.5 23.5402 27.7888 25.257 26.523 26.5229C25.2571 27.7888 23.5402 28.4999 21.75 28.4999C19.9598 28.4999 18.2429 27.7888 16.977 26.5229C15.7112 25.257 15 23.5402 15 21.7499C15 19.9597 15.7112 18.2428 16.977 16.977C18.2429 15.7111 19.9598 14.9999 21.75 14.9999C23.5402 14.9999 25.2571 15.7111 26.523 16.977C27.7888 18.2428 28.5 19.9597 28.5 21.7499V21.7499ZM25.1055 21.0974L20.6145 18.6224C20.5004 18.5593 20.3718 18.527 20.2414 18.5288C20.111 18.5306 19.9833 18.5663 19.8709 18.6325C19.7585 18.6987 19.6653 18.793 19.6006 18.9062C19.5358 19.0194 19.5016 19.1475 19.5015 19.2779V24.2279C19.5014 24.3585 19.5353 24.4868 19.6 24.6002C19.6647 24.7136 19.7578 24.8081 19.8703 24.8745C19.9827 24.9409 20.1105 24.9767 20.241 24.9786C20.3715 24.9804 20.5003 24.9481 20.6145 24.8849L25.1055 22.4099C25.2227 22.3451 25.3204 22.25 25.3885 22.1346C25.4565 22.0192 25.4924 21.8877 25.4924 21.7537C25.4924 21.6197 25.4565 21.4882 25.3885 21.3728C25.3204 21.2574 25.2227 21.1623 25.1055 21.0974V21.0974Z" fill="#2A7AE4"/>
</svg>
