<svg width="30" height="30" viewBox="0 0 30 30" fill="none" xmlns="http://www.w3.org/2000/svg">
<path d="M15 14.2375C15 13.425 14.5125 12.7 13.775 12.3875L6.8 9.4375C4.95 11.5375 3.9 14.0625 3.3 16.25H12.9875C14.1 16.25 15 15.35 15 14.2375Z" fill="#2A7AE4"/>
<path d="M27.45 14.0249C26.9375 8.51245 21.75 4.66245 16.225 5.02495C13.0875 5.22495 10.675 6.19995 8.8125 7.57495L14.7375 10.0874C16.4 10.7999 17.4875 12.4249 17.4875 14.2374C17.4875 16.7249 15.4625 18.7499 12.975 18.7499H2.7625C2.5 20.3874 2.5 21.4999 2.5 21.4999V22.4999C2.5 23.8749 3.625 24.9999 5 24.9999H17.5C23.3375 24.9999 28.0125 19.9874 27.45 14.0249Z" fill="#2A7AE4"/>
</svg>
