<svg width="30" height="30" viewBox="0 0 30 30" fill="none" xmlns="http://www.w3.org/2000/svg">
<path d="M22.5 5L25 8.75H21.25L18.75 5H16.25L18.75 8.75H15L12.5 5H10L12.5 8.75H8.75L6.25 5H5C3.625 5 2.5125 6.125 2.5125 7.5L2.5 22.5C2.5 23.875 3.625 25 5 25H25C26.375 25 27.5 23.875 27.5 22.5V5H22.5ZM14.0625 19.0625L12.5 22.5L10.9375 19.0625L7.5 17.5L10.9375 15.9375L12.5 12.5L14.0625 15.9375L17.5 17.5L14.0625 19.0625ZM21.175 14.925L20 17.5L18.825 14.925L16.25 13.75L18.825 12.575L20 10L21.175 12.575L23.75 13.75L21.175 14.925Z" fill="#2A7AE4"/>
</svg>
