<svg width="30" height="30" viewBox="0 0 30 30" fill="none" xmlns="http://www.w3.org/2000/svg">
<path d="M10.72 3.33994L10.7 11.3799C9.97865 11.2155 9.23963 11.1416 8.5 11.1599C7.76 11.3599 7.02 12.4199 6.3 12.6799C5.89134 10.8532 6.10424 8.94235 6.90494 7.25038C7.70564 5.5584 9.04831 4.18217 10.72 3.33994V3.33994ZM15.54 2.05994L19.6 8.95994C20.0895 8.46408 20.657 8.05193 21.28 7.73994C22 7.53994 23.16 8.07994 23.96 7.95994C23.4077 6.18315 22.2813 4.63989 20.7575 3.57214C19.2337 2.50439 17.3986 1.97253 15.54 2.05994V2.05994ZM2 25.9999H28C26.68 24.6799 22.72 23.7799 19.32 23.3399L15.58 9.33994C16.62 9.23994 17.88 9.39994 18.64 9.33994L14.42 2.13994H14.4C13.9283 2.2062 13.4609 2.29969 13 2.41994C12.5626 2.53338 12.1347 2.68048 11.72 2.85994L11.7 11.1599C12.4 10.8199 13.38 10.0799 14.3 9.67994L17.9 23.1599C16.74 23.0599 15.72 22.9999 15 22.9999C12.06 22.9999 4 23.9999 2 25.9999Z" fill="#2A7AE4"/>
</svg>
