<svg width="30" height="30" viewBox="0 0 30 30" fill="none" xmlns="http://www.w3.org/2000/svg">
<path d="M25.0125 7.36692C24.9336 7.30357 24.839 7.26285 24.7388 7.24915C24.6385 7.23544 24.5364 7.24926 24.4434 7.28911L15.3872 11.2107C14.9934 11.3822 14.5003 11.4638 13.9941 11.4638C13.2881 11.4666 12.5578 11.3026 12.0488 11.0794C11.8936 11.0141 11.7459 10.9324 11.6081 10.8357C11.6456 10.8169 11.6925 10.7963 11.7441 10.7757L19.9809 7.20943L21.2091 7.73443V6.19974C21.2109 6.09029 21.188 5.98185 21.1421 5.8825C21.0961 5.78315 21.0283 5.69546 20.9438 5.62599C20.8652 5.5627 20.7709 5.52201 20.671 5.5083C20.571 5.49459 20.4693 5.50838 20.3766 5.54818L11.3203 9.46974C11.0409 9.58224 10.8009 9.72099 10.5984 9.92255C10.3639 10.1539 10.2308 10.4688 10.2281 10.7982C10.2281 10.8075 10.2309 10.8235 10.2309 10.8235V24.6329L10.2291 24.6516C10.2291 24.6554 10.2319 24.6572 10.2319 24.661V24.676H10.2338C10.2525 25.1588 10.4963 25.4663 10.7288 25.6838C11.46 26.3288 12.6881 26.6897 13.995 26.7085C14.6138 26.7085 15.2419 26.6147 15.8231 26.3654L24.8822 22.4429C25.1213 22.3397 25.2778 22.0838 25.2778 21.7941V7.94068C25.2793 7.8313 25.2562 7.72298 25.2103 7.62369C25.1644 7.52441 25.0968 7.43667 25.0125 7.36692V7.36692ZM19.2684 4.74193C19.2525 4.53568 19.1672 4.3388 19.0153 4.22067C18.9364 4.15732 18.8418 4.1166 18.7416 4.1029C18.6413 4.08919 18.5392 4.10301 18.4463 4.14286L9.39 8.06255C8.99625 8.23318 8.50219 8.31567 7.99688 8.31567C7.29094 8.31755 6.56063 8.15349 6.05157 7.92943C5.89628 7.86518 5.74852 7.78406 5.61094 7.68755C5.64844 7.6688 5.69532 7.64817 5.74688 7.62755L13.9847 4.0613L15.2128 4.5863V3.05349C15.2145 2.94398 15.1914 2.83551 15.1453 2.73616C15.0992 2.63682 15.0313 2.54916 14.9466 2.47974C14.8678 2.41646 14.7734 2.37579 14.6733 2.36208C14.5732 2.34838 14.4713 2.36215 14.3784 2.40192L5.32219 6.32442C5.04282 6.43692 4.80375 6.57474 4.60032 6.77724C4.36617 7.00873 4.23334 7.32361 4.23094 7.65286C4.23094 7.66411 4.23375 7.67911 4.23375 7.67911V21.5326H4.23563C4.25438 22.0154 4.49813 22.3229 4.73063 22.5404C5.46188 23.1854 6.69 23.5454 7.99782 23.5641C8.35298 23.562 8.707 23.5237 9.05438 23.4497V10.8225C9.045 10.1663 9.3075 9.5363 9.76875 9.08255C10.0883 8.77257 10.468 8.53136 10.8844 8.3738L19.2684 4.74193V4.74193Z" fill="#2A7AE4"/>
</svg>
